<?xml version="1.0" encoding="UTF-8"?>
<svg width="90px" height="63px" viewBox="0 0 90 63" version="1.1" xmlns="http://www.w3.org/2000/svg" xmlns:xlink="http://www.w3.org/1999/xlink">
    <title>E6C51B46-0CB9-46C2-AA04-CC48FCC2A3B7@1.5x</title>
    <g id="Design_Optional-&amp;-CR" stroke="none" stroke-width="1" fill="none" fill-rule="evenodd">
        <g id="cr-00-1-home-type" transform="translate(-695.000000, -453.000000)">
            <g id="Group-9" transform="translate(610.000000, 286.000000)">
                <g id="Group-6" transform="translate(30.000000, 140.000000)">
                    <g id="cruise-ship" transform="translate(55.000000, 27.000000)">
                        <polygon id="Path" fill="#69A6FF" points="74.8266251 26.1857283 26.6417725 26.1857283 28.7706057 12.5074532 72.6977919 12.5074532"></polygon>
                        <path d="M74.8266251,27.7058267 L26.6417725,27.7058267 C26.1982655,27.7058267 25.7764992,27.5110315 25.4869153,27.174488 C25.1990706,26.8370749 25.0712362,26.3909592 25.1399363,25.9518002 L27.2696391,12.2743947 C27.3852989,11.5334772 28.0218615,10.9882248 28.7714753,10.9882248 L72.6977919,10.9882248 C73.4474057,10.9882248 74.0839683,11.5343468 74.2004977,12.2743947 L76.3284614,25.9518002 C76.3971615,26.3909592 76.2693271,26.8370749 75.9814824,27.174488 C75.6918985,27.5110315 75.2701322,27.7058267 74.8266251,27.7058267 L74.8266251,27.7058267 Z M28.4166698,24.6656303 L73.0517279,24.6656303 L71.3968383,14.0275514 L30.0732985,14.0275514 L28.4166698,24.6656303 Z" id="Shape" fill="#333333" fill-rule="nonzero"></path>
                        <polygon id="Path" fill="#FFFFFF" fill-rule="nonzero" points="84.5898647 41.3832322 13.7409389 41.3832322 19.3586932 23.1464016 78.97298 23.1464016"></polygon>
                        <path d="M84.588995,42.9033302 L13.7418084,42.9033302 C13.2591685,42.9033302 12.8052262,42.6737502 12.5182513,42.2867687 C12.2321457,41.8989177 12.1469229,41.3971462 12.2886712,40.9362467 L17.9046862,22.6985465 C18.1020903,22.0611141 18.6908239,21.6263034 19.3578236,21.6263034 L78.97298,21.6263034 C79.6391101,21.6263034 80.2287133,22.0611141 80.4261174,22.6985465 L86.0421324,40.9362467 C86.1830112,41.3971462 86.0977882,41.8980481 85.8116828,42.2867687 C85.5255774,42.6737502 85.0716349,42.9033302 84.588995,42.9033302 L84.588995,42.9033302 Z M15.8002024,39.8640036 L82.5306012,39.8640036 L77.8511685,24.6656303 L20.4796351,24.6656303 L15.8002024,39.8640036 Z" id="Shape" fill="#333333" fill-rule="nonzero"></path>
                        <path d="M21.2692514,62.7437428 C20.1987476,62.7437428 19.1256346,62.5472084 18.0986118,62.1532698 L8.43972677,58.4399865 C7.65619793,58.1390973 7.26399862,57.2599103 7.56575731,56.4763812 C7.86838556,55.6928524 8.75105112,55.2989139 9.52936234,55.6024117 L19.1882474,59.3156953 C20.8057432,59.9374746 22.5989027,59.8079009 24.1068261,58.9548023 L25.9634678,57.9077782 C28.884526,56.2607151 32.4282333,56.3981154 35.2127611,58.2651926 C36.9937458,59.4591827 39.2704145,59.5722334 41.1592322,58.5634726 L42.9689145,57.5990625 C45.6908294,56.1467949 48.9040806,56.208538 51.5651221,57.7590728 L53.3548029,58.8008794 C54.9340353,59.7218085 56.8785088,59.8392072 58.5568782,59.1148127 L63.236311,57.0990304 C65.8216954,55.9850452 68.813193,56.1781012 71.2376975,57.6173245 L72.9438948,58.6330423 C74.6370478,59.6374551 76.7023984,59.7165907 78.4694692,58.8443604 L84.8977106,55.6598069 C85.6499333,55.2823911 86.5630357,55.5945852 86.9352336,56.3468077 C87.3074316,57.0990304 86.9995857,58.0103936 86.2482328,58.3825913 L79.818252,61.5680146 C77.1267737,62.902014 73.9743961,62.7820061 71.3916204,61.2462548 L69.6845538,60.230537 C68.0940161,59.2878674 66.13302,59.160033 64.4381279,59.890515 L59.7586949,61.9071671 C57.2002688,63.0107166 54.2348597,62.8307049 51.8260085,61.4280056 L50.0363276,60.3853295 C48.2875189,59.3687421 46.1812959,59.3278699 44.3994417,60.2809749 L42.5897594,61.2462548 C39.7078341,62.7837454 36.2319574,62.6106907 33.5204778,60.7905732 C31.6934032,59.5661462 29.3706444,59.4757056 27.4557382,60.5557753 L25.5990964,61.6027995 C24.2572705,62.3602398 22.7667395,62.7437428 21.2692514,62.7437428 L21.2692514,62.7437428 Z" id="Path" fill="#333333" fill-rule="nonzero"></path>
                        <polygon id="Path" fill="#FFFFFF" fill-rule="nonzero" points="67.1087351 12.5074532 54.9505582 12.5074532 57.9898851 1.86937456 70.1480619 1.86937456"></polygon>
                        <g id="Group" transform="translate(33.133496, 0.290142)" fill="#333333" fill-rule="nonzero">
                            <path d="M33.9752388,13.7374093 L21.8170619,13.7374093 C21.3405094,13.7374093 20.8909152,13.5130471 20.6030704,13.1330226 C20.316965,12.7521283 20.2247851,12.2581834 20.3552284,11.7998928 L23.3954248,1.16094464 C23.5823935,0.508728469 24.1780841,0.0591342558 24.8572584,0.0591342558 L37.0154352,0.0591342558 C37.4919877,0.0591342558 37.9415822,0.283496691 38.2294267,0.664390756 C38.5155321,1.04528482 38.6077121,1.53836022 38.477269,1.99752032 L35.4370725,12.635599 C35.2501039,13.2878151 34.6535435,13.7374093 33.9752388,13.7374093 L33.9752388,13.7374093 Z M23.8319747,10.6980827 L32.8290779,10.6980827 L34.9996529,3.0993307 L26.0025497,3.0993307 L23.8319747,10.6980827 Z" id="Shape"></path>
                            <path d="M37.0145657,28.9349131 C37.0145657,29.7749675 36.3345218,30.4550113 35.495337,30.4550113 C34.6561524,30.4550113 33.9752388,29.7749675 33.9752388,28.9349131 C33.9752388,28.0957285 34.6561524,27.4156847 35.495337,27.4156847 C36.3345218,27.4156847 37.0145657,28.0957285 37.0145657,28.9349131 Z" id="Path"></path>
                            <path d="M27.8965852,28.9349131 C27.8965852,29.7749675 27.2156716,30.4550113 26.376487,30.4550113 C25.5373024,30.4550113 24.8563888,29.7749675 24.8563888,28.9349131 C24.8563888,28.0957285 25.5373024,27.4156847 26.376487,27.4156847 C27.2156716,27.4156847 27.8965852,28.0957285 27.8965852,28.9349131 Z" id="Path"></path>
                            <path d="M18.777735,28.9349131 C18.777735,29.7749675 18.0968214,30.4550113 17.2576368,30.4550113 C16.4184522,30.4550113 15.7384081,29.7749675 15.7384081,28.9349131 C15.7384081,28.0957285 16.4184522,27.4156847 17.2576368,27.4156847 C18.0968214,27.4156847 18.777735,28.0957285 18.777735,28.9349131 Z" id="Path"></path>
                            <path d="M2.54625149,17.5367854 C2.54625149,18.2246558 1.98795465,18.7829529 1.30008406,18.7829529 C0.612213472,18.7829529 0.0547862044,18.2246558 0.0547862044,17.5367854 C0.0547862044,16.8489149 0.612213472,16.2914876 1.30008406,16.2914876 C1.98795465,16.2914876 2.54625149,16.8489149 2.54625149,17.5367854 Z" id="Path"></path>
                            <path d="M8.62490525,17.5367854 C8.62490525,18.2246558 8.06747776,18.7829529 7.37960739,18.7829529 C6.69086723,18.7829529 6.13343974,18.2246558 6.13343974,17.5367854 C6.13343974,16.8489149 6.69086723,16.2914876 7.37960739,16.2914876 C8.06747776,16.2914876 8.62490525,16.8489149 8.62490525,17.5367854 Z" id="Path"></path>
                        </g>
                        <path d="M35.6771389,38.3656458 C33.2604609,38.3656458 30.9394414,37.4229762 29.2088949,35.7376498 L27.2018087,33.7844803 L2.10192594,33.7844803 L20.9274902,52.0213109 L22.271925,52.0213109 C23.1685045,51.896955 24.0459527,51.6151976 24.8538309,51.159516 L26.7096029,50.1124918 C29.1132365,48.7576218 32.0751671,48.871542 34.3674891,50.4081631 C36.6085034,51.9108689 39.4956465,52.0560957 41.8749307,50.7855787 L43.6837432,49.820299 C45.9186704,48.628048 48.6118878,48.6784862 50.7998553,49.9524815 L52.5904058,50.9960272 C54.5931437,52.1621894 57.029823,52.3091554 59.1577867,51.391705 L63.8372194,49.3759225 C65.9860538,48.4497757 68.4496914,48.609786 70.4602561,49.8055155 L72.1681925,50.8203636 C74.2978953,52.0865323 76.9232824,52.1865388 79.1434258,51.0873374 L83.5402316,48.9098054 L88.3848926,38.3656458 L35.6771389,38.3656458 Z" id="Path" fill="#D0E3FF"></path>
                        <path d="M22.2727946,53.5414091 L20.9274902,53.5414091 C20.5326822,53.5414091 20.1543968,53.3883557 19.8709001,53.1135554 L1.0444663,34.8758552 C0.599220143,34.4453925 0.460080717,33.7888283 0.693139255,33.2140086 C0.924458438,32.6400585 1.48275549,32.2652516 2.10105637,32.2652516 L27.2026783,32.2652516 C27.5992256,32.2652516 27.9792501,32.4191745 28.2618773,32.6957143 L30.2689633,34.6488841 C31.7247096,36.0654973 33.6457032,36.8464172 35.6771389,36.8464172 L88.3848926,36.8464172 C88.9031869,36.8464172 89.3858269,37.1099125 89.6641057,37.5464624 C89.9432541,37.9821429 89.982387,38.530874 89.7658514,39.0013392 L84.9194513,49.5446291 C84.7759636,49.8603015 84.5263822,50.1177095 84.2150579,50.2716326 L79.8191216,52.4491646 C77.1267737,53.7831638 73.9743961,53.6631561 71.3916204,52.1282742 L69.6836842,51.1125563 C68.0983643,50.1690172 66.1364984,50.0385741 64.4389975,50.7725345 L59.7595645,52.7883169 C57.2037473,53.8909968 54.2365991,53.713594 51.825139,52.3100252 L50.0363276,51.2673491 C48.3118685,50.2638059 46.153468,50.2246729 44.3994417,51.1621249 L42.5906292,52.1274046 C39.7069646,53.6648952 36.2319574,53.4918405 33.5204778,51.671723 C31.6934032,50.4464265 29.3706444,50.3559858 27.4566077,51.4377949 L25.599966,52.4839495 C24.6486003,53.0213754 23.5989672,53.3727024 22.4815037,53.5274952 C22.411934,53.5361913 22.3423643,53.5414091 22.2727946,53.5414091 Z M21.5440517,50.5020822 L22.161483,50.5020822 C22.8615282,50.3933796 23.5163531,50.169887 24.1068261,49.8359523 L25.9634678,48.7897977 C28.8827868,47.1418651 32.4273637,47.2783956 35.2127611,49.1472122 C36.9937458,50.339463 39.2704145,50.4533834 41.160102,49.4454922 L42.9689145,48.4793429 C45.6864814,47.0305536 48.9023412,47.0896878 51.5651221,48.6402229 L53.3556727,49.682899 C54.9340353,50.6029583 56.8759001,50.7203573 58.5568782,49.9968322 L63.236311,47.9801801 C65.8216954,46.8661952 68.8158019,47.0609904 71.2359584,48.4993441 L72.9447644,49.5141923 C74.640526,50.5212138 76.7050074,50.5986103 78.4694692,49.7255104 L82.3836351,47.7862545 L86.0143045,39.8857441 L35.6771389,39.8857441 C32.8482605,39.8857441 30.1759139,38.799587 28.1496959,36.8255463 L26.5852472,35.3037089 L5.85434237,35.3037089 L21.5440517,50.5020822 Z" id="Shape" fill="#333333" fill-rule="nonzero"></path>
                        <path d="M47.8379246,17.8269275 C47.8379246,18.5147979 47.2796278,19.0730949 46.5917572,19.0730949 C45.9038866,19.0730949 45.3464594,18.5147979 45.3464594,17.8269275 C45.3464594,17.1390569 45.9038866,16.5816297 46.5917572,16.5816297 C47.2796278,16.5816297 47.8379246,17.1390569 47.8379246,17.8269275 Z" id="Path" fill="#333333" fill-rule="nonzero"></path>
                        <path d="M18.4760274,39.8640036 C18.4760274,40.7031882 17.7959836,41.3832322 16.9559292,41.3832322 C16.1167446,41.3832322 15.4367005,40.7031882 15.4367005,39.8640036 C15.4367005,39.024819 16.1167446,38.3439054 16.9559292,38.3439054 C17.7959836,38.3439054 18.4760274,39.024819 18.4760274,39.8640036 Z" id="Path" fill="#333333" fill-rule="nonzero"></path>
                    </g>
                </g>
            </g>
        </g>
    </g>
</svg>