<svg xmlns="http://www.w3.org/2000/svg" xmlns:xlink="http://www.w3.org/1999/xlink" width="100" height="100" viewBox="0 0 100 100">
  <defs>
    <rect id="rect-1" width="100" height="100" x="0" y="0"/>
    <mask id="mask-2" maskContentUnits="userSpaceOnUse" maskUnits="userSpaceOnUse">
      <rect width="100" height="100" x="0" y="0" fill="black"/>
      <use fill="white" xlink:href="#rect-1"/>
    </mask>
    <path id="path-6" fill-rule="evenodd" d="M71.91609621 27.79987717c6.03818512-3.06783676 13.0776596-3.49648857 19.44347382-1.1839695 2.15986633.78780746 3.60837555 2.82813644 3.64029693 5.12695312.0308838 2.2988186-1.36135101 4.37795067-3.49889374 5.22439385L68.3219533 46.14414597 52.36359453 73.70372009c-.19624328.33885956-.5581665.54750061-.9497528.54750061H42.2870717c-.36049652 0-.69799804-.17705536-.9029312-.47364044-.20492555-.29658508-.25114442-.67489624-.1236496-1.01209259l7.00261688-18.51914596-14.89993668 5.73823165c-.77997208.29258728-1.60556412.44487763-2.43859672.44981385q-.18493844.00567627-.36969567.00567627c-2.95784187-.01700592-5.8199215-1.05036927-8.10640335-2.92683411L5.4060979 43.6775589c-.30267048-.24567032-.45231867-.63345337-.39315033-1.01876068.05916834-.38530731.31827354-.71031952.68071127-.85385895l4.36371994-1.72756195c3.9594636-1.57237244 8.44304514-1.05947113 11.94512224 1.3664627l9.23524284 6.38414765 15.95890427-7.85743713-13.69042969-8.82439232c-.3177414-.20484734-.50769806-.55880547-.5027504-.9368267.00494385-.37802125.20409013-.72688676.52708054-.92335511l5.65646363-3.44048882c.285614-.17393302.6349945-.20801544.9488449-.09256172l20.58109284 7.5609169 11.19914627-5.5139656zM70.09524202 43.0810356l20.5975647-8.1546936h-.00036621c1.29031372-.51089096 2.1307373-1.76592636 2.11208343-3.15357208-.0192871-1.38764763-.8937149-2.619236-2.19750976-3.0946598-5.79806519-2.10507775-12.20933533-1.71258736-17.70732117 1.08402442L31.62810946 50.083107c-.35709763.17572403-.78133774.14436722-1.10871888-.08194732l-9.7655487-6.75c-2.89938736-2.00839997-6.61131478-2.43306732-9.88939143-1.13140488l-2.6196947 1.03719711 15.58536672 12.65359497c1.97532463 1.62626648 4.46915627 2.48876954 7.02713204 2.43036652.58209991.00175095 1.15987396-.10001373 1.7063446-.30054855l16.73944855-6.44652176 1.28048706-3.38524628c.10944748-.28930664.3358841-.5189972.6236-.63256073l18.2533493-7.20731735c.43458558-.17212296.93050385-.0501175 1.23562623.30398941.30512237.3541069.35249328.86260986.11803436 1.26698685l-.71890259 1.24134063zM39.8755498 27.99524307L36.16872072 30.25l13.32493973 8.58896255 8.5029869-4.1864624-18.12109756-6.65725708zm10.9055481 44.06085587h-6.90548706l8.5904274-22.7173195 14.86865616-5.8703041-16.5535965 28.5876236z"/>
  </defs>
  <g>
    <use fill="none" xlink:href="#rect-1"/>
    <g mask="url(#mask-2)">
      <g>
        <path fill="rgb(208,227,255)" fill-rule="evenodd" d="M90.9829268 27.64713415c-6.0830598-2.21825062-12.8147364-1.80605306-18.5817073 1.13780487L31.1439024 49.0971341l-9.7646341-6.75c-3.2027751-2.2135572-7.29936152-2.6816209-10.91890245-1.2475609l-4.36280487 1.7268292L23.1408537 56.6629878c2.1798659 1.7909327 4.930156 2.7399353 7.7506097 2.6743902.7095673-.0011792 1.4132479-.1287832 2.0780488-.3768292l17.0871951-6.5798781.075.0292683 1.4798781-3.9128049 18.252439-7.207317-2.3012195 3.975 23.5335366-9.3182927c1.7141728-.6783513 2.8307745-2.3454663 2.8060019-4.18880954-.0256076-1.84334325-1.1873474-3.47932374-2.9194166-4.11058071z"/>
        <path fill="rgb(255,255,255)" fill-rule="evenodd" d="M60.779878 34.50689024L49.4219512 40.0989634 34.1 30.22457317l5.6579268-3.44085366 21.0219512 7.72317073z"/>
        <path fill="rgb(105,166,255)" fill-rule="evenodd" d="M69.8640244 41.2898171l-2.3012195 3.975-16.1487805 27.8890244h-9.1262195l7.8439024-20.7439025 1.4798781-3.9128049 18.252439-7.207317z"/>
        <g>
          <use fill="rgb(51,51,51)" xlink:href="#path-6"/>
          <use fill-opacity="0" stroke="rgb(51,51,51)" stroke-dasharray="0 0 0 0" stroke-linecap="butt" stroke-linejoin="miter" stroke-width=".6" xlink:href="#path-6"/>
        </g>
      </g>
      <rect width="100" height="100" x="0" y="0" fill="none" rx="0" ry="0"/>
    </g>
  </g>
</svg>
