<svg xmlns="http://www.w3.org/2000/svg" xmlns:xlink="http://www.w3.org/1999/xlink" width="40" height="40" viewBox="0 0 40 40">
  <defs>
    <ellipse id="ellipse-1" cx="20" cy="20" rx="20" ry="20"/>
    <mask id="mask-2" x="0" y="0" maskContentUnits="userSpaceOnUse" maskUnits="userSpaceOnUse">
      <rect width="40" height="40" x="0" y="0" fill="black"/>
      <use fill="white" xlink:href="#ellipse-1"/>
    </mask>
  </defs>
  <g>
    <g>
      <use fill="rgb(155,155,155)" xlink:href="#ellipse-1"/>
      <use fill-opacity="0" stroke="rgb(255,255,255)" stroke-linecap="butt" stroke-linejoin="miter" stroke-width="4" mask="url(#mask-2)" xlink:href="#ellipse-1"/>
    </g>
    <path fill="rgb(255,255,255)" fill-rule="evenodd" d="M28.2364502 19.45617676l1.53826904 1.53833008c.30041504.30041504.30041504.78741455 0 1.08782959-.15014649.15026855-.34698486.2253418-.54388428.2253418-.19683838 0-.3937378-.07507325-.54388428-.22528077l-.23168945-.23168945C28.29034423 26.3722534 24.56121826 30 20.00006103 30c-4.56109619 0-8.29022216-3.62774658-8.45520019-8.14935303l-.23168945.23168946c-.30041504.30041503-.78747559.30041503-1.08789063 0-.300354-.30041504-.300354-.78741456 0-1.0878296l1.53839111-1.53833007c.29248047-.29296875.7824707-.30615235 1.08807374 0l1.5383911 1.53833008c.30041505.30041504.30041505.78741455 0 1.08782959-.15014648.15026855-.34704589.2253418-.54388427.2253418-.19689941 0-.3937378-.07507325-.54394531-.2253418l-.21740723-.2173462c.15911865 3.40924073 2.7956543 6.18145752 6.14593506 6.55358887V16.05645752c-1.32556152-.34240723-2.30767822-1.54846191-2.30767822-2.97955322C16.92315674 11.38031006 18.3034668 10 20.00006104 10c1.69665527 0 3.07696533 1.38031006 3.07696533 3.0769043 0 1.4310913-.9821167 2.637146-2.30773926 2.97955322V28.4185791c3.3503418-.37213135 5.9868164-3.14434814 6.14593506-6.55352783l-.21740723.2173462c-.30041504.30041503-.78747558.30041503-1.08782959 0-.30041504-.30041505-.30041504-.78741456 0-1.0878296l1.53833008-1.53839111c.29852295-.29888916.78857422-.2999878 1.08813477 0zm-8.23638916-7.91772461c-.84832764 0-1.53845215.69012451-1.53845215 1.53845215 0 .84832763.6901245 1.53845215 1.53845215 1.53845215.84832763 0 1.53845214-.69012452 1.53845214-1.53845215 0-.84832764-.6901245-1.53845215-1.53845214-1.53845215z"/>
  </g>
</svg>
