<svg xmlns="http://www.w3.org/2000/svg" width="67" height="67" viewBox="0 0 67 67">
  <g>
    <ellipse cx="33.5" cy="33.5" fill="rgb(255,255,255)" rx="33.5" ry="33.5"/>
    <g>
      <path fill="rgb(204,228,255)" fill-rule="evenodd" d="M19.92083333 51.41416667c.17916667.015.3725.02333333.57916667.02333333 3.05833333 0 3.33333333-1.66666667 6.38333333-1.66666667C29.94166667 49.77083333 29.94166667 51.4375 33 51.4375c3.05 0 3.05-1.66666667 6.10833333-1.66666667 3.05 0 3.33333334 1.66666667 6.39166667 1.66666667.19083333 0 .37-.0075.5375-.02l.29583333-.81333333L50.5 36.4375l-2.85833333-1.09166667-9.95-3.78333333L33 29.77083333 28.30833333 31.5625l-9.95 3.78333333L15.5 36.4375l4.16666667 14.16666667.25416666.81z"/>
      <path fill="rgb(204,228,255)" fill-rule="evenodd" d="M27.75 24.02083333l5.25-1.75 5.25 1.75L43 25.60416667v-7.5l-10-3.33333334-10 3.33333334v7.5l4.75-1.58333334z"/>
      <path fill="rgb(105,166,255)" fill-rule="evenodd" d="M19.29919434 53.01831055c-1.2216797-.17584229-1.9716797-.62414551-2.57421875-.98498535-.62084961-.37164307-.99584961-.5958252-2.05834961-.5958252H13v-3.33331299h1.66662598c1.19335937 0 2.02331543.21582031 2.67175293.48999024l-3.8717041-13.16418457 2.86669921-1.09246827v-8.26751709l5-1.666687v-7.5L33 13.01416015l11.66662598 3.88916015v7.5l5 1.66668701v8.2675171l2.86669922 1.09246826-3.8717041 13.16333007c.647583-.27416992 1.47668456-.48913574 2.67175292-.48913574H53V51.4375h-1.66662598c-1.06506347 0-1.4375.22332764-2.05419922.59332275-.60168457.36169434-1.35083007.81164551-2.5925293.98999024-.35913085.05419922-.76330566.08337402-1.1866455.08337402-1.92333984 0-3.04418945-.55999756-3.94494629-1.01000976-.76342773-.38085938-1.31591797-.65667725-2.44677734-.65667725-1.10498047 0-1.5649414.2508545-2.26074219.63079834-.84509277.46166992-1.89831543 1.03588867-3.84753418 1.03588867-1.95422363 0-3.00830078-.57421875-3.85583496-1.03668213-.69665527-.37915039-1.15661621-.63000488-2.26086426-.63000488-1.13000488 0-1.67993164.27502441-2.4407959.65667725C23.54333496 52.54418945 22.42419434 53.104187 20.5 53.104187c-.42333984 0-.82751465-.0291748-1.20080566-.08587646zm5.36743164-33.71325684L33 16.52752686l8.33325195 2.77752685v3.9866333L33 20.5142212l-8.33337402 2.77746582v-3.9866333zm11.66662597 9.95159912v-4.11749267L33 24.0283203l-3.33337402 1.11083985v4.11749267L33 27.9866333l3.33325195 1.27001953zm-16.66662597-.78503418l6.66662597-2.22247314v4.27667236l-6.66662597 2.53997803v-4.59417725zm26.66662597 4.59503174v-4.5949707L39.66662598 26.25v4.27667236l6.66662597 2.53997803zm2.13342285 4.37835693L33 31.55499268l-15.4666748 5.89001464 3.61413574 12.28747559c.72753906-.08666992 1.20166015-.31915283 1.80249023-.61999512.89758301-.44915771 2.01586914-1.00830078 3.93334961-1.00830078 1.95422363 0 3.00830078.57415772 3.85583496 1.03582764.21166992.11578369.4017334.2166748.59423828.30499267v-11.3408203h3.33325196v11.33911132c.18920898-.08746338.37670898-.1875.58422851-.30078125.8482666-.4633789 1.90161133-1.03833008 3.85742188-1.03833008 1.91760254 0 3.03674316.55914307 3.93591308 1.0074463.60327149.30169677 1.07910157.53417968 1.80834961.6208496l3.61413574-12.28747559z"/>
    </g>
  </g>
</svg>
