<svg xmlns="http://www.w3.org/2000/svg" xmlns:xlink="http://www.w3.org/1999/xlink" width="100" height="100" viewBox="0 0 100 100">
  <defs>
    <rect id="rect-1" width="100" height="100" x="0" y="0"/>
    <mask id="mask-2" maskContentUnits="userSpaceOnUse" maskUnits="userSpaceOnUse">
      <rect width="100" height="100" x="0" y="0" fill="black"/>
      <use fill="white" xlink:href="#rect-1"/>
    </mask>
  </defs>
  <g>
    <use fill="none" xlink:href="#rect-1"/>
    <g mask="url(#mask-2)">
      <g opacity="0">
        <rect width="100" height="100" x="0" y="0" fill="rgb(255,255,255)" rx="0" ry="0"/>
      </g>
      <g>
        <path fill="rgb(208,227,255)" fill-rule="evenodd" d="M38 57.6666667h50.6666667V68c0 .9204746-.7461921 1.6666667-1.6666667 1.6666667H38v-12z"/>
        <path fill="rgb(208,227,255)" fill-rule="evenodd" d="M14.66666667 48.3333333H38v21.3333334H13c-.92047458 0-1.66666667-.7461921-1.66666667-1.6666667V51.6666667c0-1.8409492 1.49238417-3.3333334 3.33333334-3.3333334z"/>
        <path fill="rgb(255,249,247)" fill-rule="evenodd" d="M38 48.3333333H14l9.1691667-12.6075c.9408799-1.2937269 2.443984-2.0591666 4.0436666-2.0591666H38v14.6666666z"/>
        <ellipse cx="24.667" cy="71" fill="rgb(255,255,255)" rx="8" ry="8"/>
        <ellipse cx="75.333" cy="71" fill="rgb(255,255,255)" rx="8" ry="8"/>
        <path fill="rgb(208,227,255)" fill-rule="evenodd" d="M38 33.6666667H27.3333333l4.8385-7.25783337c.3091259-.46368899.8295486-.74216666 1.3868334-.74216666H38v8.00000003z"/>
        <path fill="rgb(105,166,255)" fill-rule="evenodd" d="M14.66666667 59h-3.33333334v-7.3333333c0-1.8409492 1.49238417-3.3333334 3.33333334-3.3333334H18v7.3333334C18 57.5076158 16.50761583 59 14.66666667 59z"/>
        <path fill="rgb(51,51,51)" fill-rule="evenodd" d="M87 19c1.65605164.0019287 2.99806976 1.34394526 3 3v9h-.00099945v2.66600037L90 33.66666698V68c-.00193024 1.65605545-1.34394836 2.99806976-3 3h-2.33333588c0 5.15465927-4.17867279 9.33333206-9.33332824 9.33333206C70.17868042 80.33333206 66 76.15465927 66 71H34c0 5.15465927-4.1786766 9.33333206-9.33333206 9.33333206-5.15465927 0-9.33333397-4.17867279-9.33333397-9.33333206H13c-1.6560545-.00193024-2.99807167-1.34394455-3-3V51.66666794c.00242329-1.98554993 1.25883389-3.75294495 3.1333332-4.40766716l4.10966683-5.65200043-.05653763-.04104614 3.76182556-5.17770767.058712.04275322 1.08399964-1.48950005c1.01105118-1.38537884 2.53634644-2.30000305 4.2259407-2.54378223l.28306008-.03438378L31.0625 25.66933346c.55565262-.83543778 1.49282074-1.33702946 2.49616623-1.33599997h3.1079979V22c.00193023-1.65605474 1.34394836-2.9980713 3-3H87zm-47.33333588 2.66666675H87l.06717682.00677204c.15189361.03108215.26615143.16547823.26615143.32656121l-.00032807 8.20000076h-.00782776v7.9999981h.00782776l.00032807 18.13333702H39.33333206V22c0-.1840949.14923859-.33333325.33333206-.33333325zM33.55866622 27h3.10800172v5.33333397h-6.84200096l3.45666694-5.18483353C33.34313583 27.05574704 33.4472084 27 33.55866622 27zm3.10800172 8H27.2128334c-1.17274093.00177193-2.2743225.56274796-2.96549987 1.51016617l-1.08233261 1.48883438.0485363.03504372-3.76182557 5.17770958-.05171012-.03775406L16.61833382 47h20.04833412V35zm0 14.66666603H19.33333397v5.9999981c-.00293923 2.57611083-2.0905571 4.66373061-4.66666699 4.66666793h-2V68c0 .18409348.1492386.33333206.33333302.33333206h2.7213335c1.17991162-3.95550918 4.81759167-6.6664772 8.94533444-6.6664772 4.12773895 0 7.765419 2.71096802 8.94533157 6.6664772h3.05466843V49.66666603zm-20 0h-2.00000096c-1.10407447.001194-1.998806.89592552-2 1.9999981v6h2c1.10407448-.0011902 1.99880505-.89592362 2.00000096-2v-5.9999981zM39.33333206 59h47.99999619v9c0 .18409348-.14923096.33333206-.33332825.33333206h-2.72133636c-1.17990876-3.95550918-4.81758881-6.6664772-8.9453354-6.6664772-4.12773895 0-7.765419 2.71096802-8.94532775 6.6664772H39.33333206V59zm-14.66666603 5.33333206C20.98476791 64.33333206 18 67.31809998 18 71c0 3.68189621 2.98476791 6.66666412 6.66666603 6.66666412C28.34685135 77.66253281 31.32920074 74.68018342 31.33333206 71c0-3.68190002-2.98476791-6.66666794-6.66666603-6.66666794zM68.66666413 71c0-3.68190002 2.98477172-6.66666794 6.66666412-6.66666794C79.01522827 64.33333206 82 67.31809998 82 71c-.00413513 3.68018341-2.98648071 6.6625328-6.66667175 6.66666412-3.6818924 0-6.66666413-2.98476791-6.66666413-6.66666412z"/>
        <ellipse cx="24.667" cy="71" fill="rgb(254,254,254)" rx="2.667" ry="2.667"/>
        <path fill="rgb(51,51,51)" fill-rule="evenodd" d="M20.66666603 71c0 2.20913696 1.79086113 4 4 4 2.20811081-.00247955 3.99752045-1.7918892 4-4 0-2.20914078-1.79086113-4-4-4-2.20913887 0-4 1.79085922-4 4zm2.66666794 0c0-.73637772.59695434-1.33333206 1.33333397-1.33333206C25.40270424 69.66749573 25.99917412 70.2639656 26 71c0 .73638153-.59695244 1.33333588-1.33333206 1.33333588-.73637963 0-1.33333397-.59695435-1.33333397-1.33333588z"/>
        <ellipse cx="75.333" cy="71" fill="rgb(254,254,254)" rx="2.667" ry="2.667"/>
        <path fill="rgb(51,51,51)" fill-rule="evenodd" d="M71.33333588 71c0 2.20913696 1.79086303 4 4 4 2.208107-.00247955 3.99752044-1.7918892 4-4 0-2.20914078-1.79086304-4-4-4-2.20913697 0-4 1.79085922-4 4zM74 71c0-.73637772.59695435-1.33333206 1.33333588-1.33333206.73603058.00082779 1.33250427.59729767 1.33332824 1.33333206 0 .73638153-.59695434 1.33333588-1.33332824 1.33333588C74.59695435 72.33333588 74 71.73638153 74 71z"/>
      </g>
    </g>
  </g>
</svg>
